<svg version="1.0" xmlns="http://www.w3.org/2000/svg" width="512.000000pt" height="512.000000pt" viewBox="0 0 512.000000 512.000000" preserveAspectRatio="xMidYMid meet" transform="rotate(-180)">

<g transform="translate(0.000000,512.000000) scale(0.100000,-0.100000)" fill="#000000" stroke="none">
<path d="M140 4760 l0 -100 2255 0 2255 0 2 -2037 3 -2038 98 -3 97 -3 0 2141
0 2140 -2355 0 -2355 0 0 -100z"></path>
<path d="M210 4365 l0 -95 1630 0 c897 0 1630 -3 1630 -7 1 -5 2 -50 3 -101
l2 -92 -197 0 -198 0 0 -295 0 -295 198 0 197 0 0 -197 0 -198 293 -3 292 -2
0 200 0 200 100 0 100 0 0 -1450 0 -1450 95 0 95 0 0 1548 0 1547 -192 0 -193
0 0 100 0 100 193 0 192 0 0 293 0 292 -290 0 -290 0 0 -195 0 -195 -100 0
-100 0 0 195 0 195 -1730 0 -1730 0 0 -95z m4050 -195 l0 -100 -100 0 -100 0
0 100 0 100 100 0 100 0 0 -100z m-787 -302 c-2 -5 -3 -51 -3 -103 l0 -96 -97
3 -98 3 -3 89 c-2 49 -1 95 2 102 5 14 203 15 199 2z m397 -93 l0 -105 -100 0
-100 0 0 105 0 105 100 0 100 0 0 -105z m0 -395 l0 -100 -100 0 -100 0 0 100
0 100 100 0 100 0 0 -100z"></path>
</g>
</svg>