<?xml version="1.0" encoding="UTF-8" standalone="no"?><!DOCTYPE svg PUBLIC "-//W3C//DTD SVG 1.1//EN" "http://www.w3.org/Graphics/SVG/1.1/DTD/svg11.dtd"><svg xmlns="http://www.w3.org/2000/svg" xmlns:xlink="http://www.w3.org/1999/xlink" version="1.1" width="885" height="524" viewBox="0 0 664 393">
<desc>Created with SVGMaker Editor 3.0.0</desc>
<defs>
</defs>
<path transform="translate(0,0)" style="fill: rgb(0,0,0)" stroke-linecap="round" d="M421.5 4.6C402.7 7.2 375.8 15 358.9 22.6 348.8 27.3 335.1 34.6 333 36.6 330.4 39.1 329.2 44 330.5 47.6 333.1 55.4 338.1 56.8 346.7 52.1 378.6 34.7 408 26 434.7 26 457.4 26 472.3 31 482.2 41.9 496.7 58 492.6 77.5 469.6 100.5 452.7 117.4 420.9 137.2 393.9 147.4 384.4 151.1 384.2 151.2 382.5 155.6 381.1 159.4 381 160.6 382 163.1 384.2 168.4 386.1 169 400.5 169 414.5 169 433.6 170.4 440.4 172 460.1 176.5 465.7 178.3 477.7 184.4 481.7 186.4 488.2 190.8 492.2 194.2 500.4 201.2 500.8 201.6 505.1 208.2 528.2 242.8 489.7 291.5 425.9 308.3 396.3 316.2 363.5 314.6 353.1 304.9 349.7 301.7 350.2 295.9 354.3 291.9 358.7 287.6 371.1 282 389.5 275.9 398 273 405 270.4 405 269.9 405 268.1 402.3 268 386.3 269 343.1 271.8 316.9 279.2 303.8 292.2 299.3 296.7 298.1 298.6 296.9 303.5 290.6 328.3 320.7 348.8 377.6 358.6 392.4 361.2 395.5 361.4 421.5 361.4 445 361.4 452.1 361 465.5 359.2 487.9 356 506.4 352.8 520.4 349.5 526.1 348.2 528.2 348.1 532.2 349.1 538.1 350.5 542.4 349.9 550.9 346.5 554.5 345.1 557.4 344.1 557.6 344.3 557.7 344.4 556.7 346.7 555.3 349.5 548 364.3 547.8 376.5 554.8 384.6 557.6 387.9 560.5 389 566.2 389 575.5 389 581.2 383.4 582.8 372.9 583.6 366.9 582.2 357 579.5 350.6 578.6 348.5 578.1 346.6 578.3 346.4 578.5 346.2 581.4 347.2 584.6 348.7 592.7 352.4 600.5 352.9 606.3 350.1 613.8 346.5 615.4 344 615.8 335.5 616.2 328.4 616.1 327.9 613.1 324.1 610.8 321.3 608.3 319.5 604.2 318 599.1 316.1 597.9 316 592.8 317 589.6 317.6 585.4 318.8 583.5 319.5 578.2 321.8 577.7 321.3 580.5 316.8 586.6 306.8 588.2 301.9 588.4 292.9 588.5 285 588.3 284.1 585.7 280.7 581.7 275.5 577.8 273.7 571.4 274.2 565.1 274.7 559.9 278.2 557.3 283.8 555.2 288.2 554.7 306.2 556.7 310.1 557.3 311.4 558.5 314.8 559.3 317.6L560.7 322.8 556 319.4C548.8 314.2 543.2 312 537 312 526.1 312 519.1 318.4 518.3 329.3 517.9 333.3 518.2 336.5 519 337.9 519.6 339.2 520 340.3 519.8 340.5 519.6 340.7 515.4 341.3 510.5 341.9 503.2 342.7 501.2 342.6 500.1 341.5 498.9 340.3 499 339.9 501.4 339 502.9 338.5 506 338 508.3 338 514.2 338 515.3 337 514.5 332.7 513.6 328.1 514.7 328.2 480 327.6 454.1 327.1 443.4 326.1 447 324.7 447.8 324.3 453.2 322.4 458.9 320.5 491 309.4 520.5 288.1 533.7 266.5 537.2 260.8 541.3 252.1 542.1 249 542.5 247.1 543.3 243.7 543.9 241.5 545.5 235.3 545.3 220 543.5 216.6 542.7 215.1 542 213 542 212 542 211 541.2 208.5 540.2 206.4 527.8 179.2 489.9 157 444.8 150.6 442.1 150.2 440 149.6 440 149.2 440 148.8 444.1 146.1 449 143.2 464.1 134.3 478.8 123 490.2 111.3 499.1 102.3 506.4 92.2 509.4 85 510.4 82.5 511.8 79.3 512.6 77.8 513.4 76.4 514 73.9 514 72.3 514 70.7 514.7 67.1 515.5 64.3 516.9 59.7 516.9 58.6 515.5 53.4 514.7 50.2 514 46.9 514 46 514 43.5 507.4 31.2 503.9 27.3 499.5 22.2 489.2 14.8 482.8 12 469.8 6.4 461.6 4.8 442.5 4.5 432.6 4.3 423.2 4.4 421.5 4.6ZM388.6 271.9C388.3 272.4 386.3 273.1 384.3 273.4 382.2 273.8 379.7 274.3 378.8 274.6 377.8 274.9 377 274.7 377 274.1 377 272.9 382.2 271.2 386.3 271.1 387.9 271 388.9 271.4 388.6 271.9ZM370 275.8C370 276.2 368.2 277.1 366 277.8 361.6 279.1 356.2 279.4 357.4 278.2 359.6 276 370 274 370 275.8ZM348.8 282.3C349 283.3 348.5 284 347.5 284 346.7 284 343.2 285.4 339.9 287.1 336.5 288.8 333.1 289.9 332.2 289.5 330 288.7 331.7 287.3 339.7 283.4 347 279.9 348.3 279.7 348.8 282.3ZM578.3 284.4C579.7 285.7 581.2 288.1 581.6 289.6 582.6 293.7 580.3 303.3 577 309.1 575.3 311.8 574 314.4 574 314.9 574 316.3 569.2 320.2 568.2 319.6 566.9 318.8 563.4 307 562.5 300.9 561.6 294.2 563.5 287 566.8 284.3 570.4 281.3 575 281.3 578.3 284.4ZM327 296.5C327 297.3 326.6 298.2 326 298.5 325.5 298.8 325 301.4 325 304.1 325 307.9 325.6 309.9 327.5 312.5 330.8 316.7 345.3 325.1 354.5 328 363.2 330.7 364.5 331.7 362.4 333.8 361 335.2 360.3 335.1 355.2 333.6 352 332.6 344.9 329.6 339.3 326.9 328.2 321.6 322.5 316.2 320.4 309.2 318.5 302.8 322 293.3 325.6 294.7 326.4 295 327 295.8 327 296.5ZM548.4 323.3C551.6 324.8 555.4 327.2 557 328.7L559.9 331.4 557.7 333.9C555.2 336.6 547 340.5 541.7 341.5 535 342.8 528 338.8 526.5 332.8 525.6 329.4 528.4 323.4 531.9 321.4 535.4 319.4 541.4 320.1 548.4 323.3ZM604 325.7C610.3 329.4 610.6 337.4 604.6 342.2 601.3 344.9 592.7 344.5 586 341.4 580.4 338.8 575 334.5 575 332.6 575 331.4 581.4 327.8 587.5 325.6 593 323.6 600.6 323.6 604 325.7ZM398.1 338.1C409.8 340 416.1 340.3 448.5 340.5 478.8 340.7 485.5 341 485.5 342.1 485.5 344.4 479.1 345.1 452 345.7 428.9 346.1 423.1 345.9 407 344 381 341 376.7 339.9 378.5 337 379.4 335.5 383.2 335.8 398.1 338.1ZM571 347.7C571 348.5 571.6 350.4 572.4 351.8 574.3 355.6 575.9 360.9 576.6 366.1 578.2 377.6 567.3 385.4 559.9 378.1 557.5 375.6 557 374.4 557 370.1 557 364.1 560 355 564.4 347.3L567.5 341.9 569.2 344.1C570.2 345.2 571 346.9 571 347.7Z"/>
<path transform="translate(0,0)" style="stroke: rgb(255,255,255); stroke-opacity: 0; fill: rgb(0,0,0)" stroke-linecap="round" d="M155 13.5C121.7 18.2 96.8 30.3 70.3 54.5 51 72.2 34.8 98.6 24 130 21.3 138 17.5 155.8 15.4 171 13.5 185.2 14 212.3 16.5 225 26.3 275.3 48.6 309.8 81.5 326 93.5 331.9 97.7 333.3 111 336 123.1 338.4 130.1 338.5 143.5 336.5 168.2 332.8 191 322.8 210 307.5 216.4 302.4 236.3 281.8 242.5 273.8 244.8 271 253.8 255.2 256.3 250 268.3 224.1 274.6 192.6 272.1 170.3 270 151 267.4 141.5 260.1 126.5 245.5 96.6 219.9 77.6 188.2 73 164.7 69.5 136.8 79.9 118.3 99.1 109.2 108.5 104 116.8 96.9 133.5 91.4 146.4 90 172.7 93.9 187.7 100.9 214.8 122.7 233 148.3 233 157.4 233 162.8 231.6 173.5 226.5 188.7 219.2 198.7 207.2 203.1 190.9 205.1 183.7 205.3 182 204.3 175.4 203 166.3 199.2 158.4 193.1 152.5 181.7 141.2 165.5 139.9 157 149.6 154.5 152.5 154 153.9 154 158 154 162.3 154.4 163.3 157.7 166.5 159.7 168.4 162.2 170 163.2 170 167.7 170 171.7 174.4 170.5 178 170.1 179.1 168.6 180.7 167 181.5 158.8 185.7 147.3 180.3 141.8 169.6 140.1 166.4 139.8 164.3 140.2 158.5 140.8 149.6 144.2 142.8 151.7 136 167.3 121.8 188.5 123.9 204.7 141.4 228.5 167 227.3 213.4 202.2 246 197.4 252.2 184.1 265.1 178.9 268.8 155.8 284.6 130.6 287.2 108.1 275.9 71.1 257.4 54.5 202.7 69.5 148.9 70.9 144.2 72.2 139.5 72.6 138.4 73.1 137.1 73 136.8 72.2 137.5 70.9 138.8 66.2 153.7 64.4 162.5 62.2 173.3 61.5 196.3 63 207.2 65.7 227.2 73 246.5 82.6 259.5L87.1 265.5 82 260C65.8 242.6 55.8 204.7 59 173.5 62.2 143 71.6 118.8 88 99.1 90.9 95.6 94.3 90.8 95.6 88.5L97.8 84.2 94.9 83.8C92.5 83.4 91.4 84 88.2 87.9 84.2 92.7 78 101.5 73.6 108.8 71.9 111.5 70.3 113 69.2 112.8 68 112.6 66.7 114.1 64.9 117.5 61.4 124.4 57.1 136.4 58.9 134.4 59.4 133.9 60.3 131.8 61 129.7 61.7 127.6 62.4 126.1 62.7 126.3 62.9 126.6 61.8 131 60.2 136.2 56.5 147.6 53.4 163.6 52.5 175 51.8 184.6 53.2 204.3 55.6 215.8 63.1 253.6 83.9 279.4 114.5 289 125.2 292.4 141.9 292.8 153.3 290.1 163 287.8 173.6 283.3 182.4 277.6 185.6 275.6 187.9 274.4 187.5 275.1 186 277.5 171.6 286 164.2 288.9 136 299.7 109.2 296 86.6 278 69.7 264.6 59.9 248.4 53.3 223.3 50.6 212.9 50.5 211.6 50.5 188.5 50.5 172.1 50.3 166.7 49.7 171.5 49.3 175.3 48.5 181.4 47.8 185 47.2 188.6 46.7 194.1 46.9 197.4 47.3 210.1 53 236.7 57.2 246 60.3 252.6 68.4 265.1 73 270.3 79.5 277.5 90.5 285.8 99.6 290.4 131.6 306.6 167.7 298.8 199.4 269 204.5 264.2 213.8 252.7 217.7 246.5 225.4 234.1 230.8 221.8 233.8 209.5 236.4 198.7 236.1 177.9 233.1 167.5 225.1 138.9 205.3 119.3 180.3 115 163 112 140.3 124.2 132.5 140.6 129.4 147.1 127.8 157.7 128.6 165.5 129.9 176.8 137.4 187.1 147.9 192.1 153.5 194.8 164.7 195.2 170 192.8 174.8 190.7 179.6 185.5 181.6 180.4 183.1 176.5 183.1 175.8 181.5 171.1 179.8 165.8 177 163 170 159.5 166.6 157.7 166.6 157.7 169 156.8 174.5 154.8 182.5 159.1 187.8 166.8 190.9 171.5 191.1 172.2 191.1 180.3 191.1 189.6 190 192.8 183.8 201.8 175.8 213.4 158.8 220.4 144.5 218 131 215.8 119.8 207.2 113.6 194.6 108.5 184.1 107 177 107 163.7 107 153.5 107.4 150.8 110.3 141.2 118.7 113.4 135.6 96.1 161.1 89 176.7 84.7 198.9 87.6 213 95.7 229.7 105.4 243.8 123.6 250 143.5 254.6 158.3 255.4 164 255.4 182 255.3 200.3 254.6 205.7 249.3 224 244.7 240.3 231.9 264.3 222.5 274.6 205.5 293.2 192.1 303.7 175.4 311.5 136.8 329.5 97.9 325.6 68.7 300.6 55.1 288.9 42.2 266.4 35.5 242.6 26.7 211.2 27.9 166.1 38.5 134.5 47.7 106.9 64.1 82.8 87.5 62.4 126.2 28.7 176.4 21.2 220.5 42.4 244.8 54.1 266.3 75.7 278.1 100 279.3 102.5 280.7 105.4 281.3 106.5 284.2 112 289.7 129.2 292.6 141.5 297.6 163.1 296.7 197.7 290.5 219.6 289.7 222.4 289 225.6 289 226.8 289 228 288.4 230.4 287.6 232.2 286.8 234 284.5 239.5 282.5 244.5 277.8 256.1 270.5 269 262.8 279.5 258.8 285 246.8 297.9 242.5 301.2 238 304.8 237.1 306 237.1 308.8 237 312.7 233.9 315.1 215.7 325.4 196.9 335.9 181.4 341.6 163.8 344.5 161 344.9 160.1 345.6 159.8 347.3 159.5 349.2 158.7 349.6 153.5 350.2 147.9 350.8 127.9 349.7 122.1 348.4 113.1 346.3 97.5 341.3 91.5 338.6 69.8 328.6 45.8 305.3 33.2 282 28.2 272.7 22 255.5 19 243 17.8 237.8 16.4 232.6 16 231.5 14.3 227.5 15 235.3 17.1 244 27.3 286.6 53.7 322.1 87.5 338.5 108.6 348.8 120.5 351.5 144.5 351.5 162.6 351.5 164.9 351.1 185 344.8 206.8 338 232.1 322.1 251.8 302.9 263.6 291.5 269.2 284.6 276.5 272.5 288.6 252.5 296.2 231.6 301.1 205.1 304.8 184.6 303.3 157 296.9 131.8 287.5 94.2 264.2 62.1 232.7 43.2 223.8 37.9 206.8 31.4 195.5 28.9 160.3 21.2 123.2 29.8 92.4 52.8 84.7 58.5 70.2 72.8 62.8 82 47.9 100.4 34.2 129.4 29.5 152.5 20.6 195.4 24.8 235.2 42 270.5 52.9 292.8 66.4 306.6 87.5 317 101.8 324 108.8 326 123.5 327 133.7 327.6 133.9 327.7 127 327.8 111.6 328.1 93.8 323.2 79.5 314.8 69.3 308.7 54.6 295 48.3 285.5 19.8 242.9 14.3 174.9 35.1 122.7 46.6 94 60.3 73.3 78.1 58 81.6 55 85.4 51.7 86.5 50.7 89.4 48 104.5 38.8 112.7 34.6 122.6 29.7 141.4 23.3 151.8 21.5 161.8 19.8 182.4 19.5 192 21 227.8 26.7 264.2 51.8 285.5 85.4 288.2 89.6 290.5 92.8 290.8 92.5 291 92.3 289.5 89 287.5 85.3 274.1 61.3 258.4 45.7 233.8 31.9 224.6 26.8 224.1 25.5 233.1 30.1 257.1 42.1 279.4 63.4 292.5 86.8 294.7 90.7 296.8 94 297.1 94 299.7 94.1 290.2 76.6 281.6 65.5 269.7 50.3 251.7 35.4 235.3 27.1 212 15.4 180 9.9 155 13.5ZM109.5 31.9C94.4 41 90.5 43.7 83.5 49.3 75.7 55.6 62.7 68.5 56.1 76.5 51.3 82.4 53.6 78.4 59.1 71.5 70.3 57.2 90.8 40.4 107.5 31.7 111.7 29.5 113.2 29.6 109.5 31.9ZM199.5 78.5C202.8 79.3 208.8 81.6 212.7 83.5 240.7 96.7 259.7 123.3 266.4 158.9 268.1 167.5 268.5 190.4 267.2 199 266.8 201.5 266.5 195 266.5 184.5 266.5 162.8 264.8 152.6 258.5 136.5 245.4 103.3 218.7 81.5 186.8 78.2 177.9 77.3 164.2 78.3 157 80.4 154.2 81.2 152.2 81.5 152.5 81.1 152.7 80.6 156 79.5 159.7 78.6 163.5 77.8 167.4 76.9 168.5 76.6 172.4 75.6 193.6 76.9 199.5 78.5ZM246.3 122.9C251.1 131 256.4 143.4 255.7 145.3 255.5 145.9 254.1 142.9 252.6 138.6 249.6 130 243 118.3 236.8 110.6L232.8 105.5 237.2 110.3C239.7 112.9 243.7 118.6 246.3 122.9ZM33.7 116.6C24.9 138 20.1 160.6 19 186L18.2 203.5 18.5 184C18.8 167.6 19.2 162.6 21.4 152.5 24.2 139.5 28.7 124.9 32.8 115.7 36.1 108.2 36.9 109 33.7 116.6ZM107.3 123.5C107 124.4 106.5 124.9 106.3 124.6 106 124.3 106.1 123.7 106.5 123.1 107.4 121.5 108 121.8 107.3 123.5ZM101.4 137.6C98 148 96.7 158 97.3 170 97.6 175.8 98.2 181.6 98.5 183L99.1 185.5 97.9 183C97.3 181.6 96.5 175.3 96.3 168.9 95.7 156.4 97.3 145.7 101.1 135.3 104.1 127.5 104.3 129.1 101.4 137.6ZM177 146.5C189.1 148.8 199.6 161.8 201.6 176.8 203.1 188.6 196.5 204.7 186.2 214.1 180.3 219.5 166.6 226.6 160.5 227.5 157.7 227.9 158.7 227.3 163.9 225.6 172.3 222.8 183.4 215.6 188.4 209.9 195.2 201.9 200 189.7 200 180.4 200 174.6 196.6 164.1 193.1 159.3 184.9 147.9 168 143.9 160.3 151.6 158.4 153.5 157.9 154.9 158.2 158.3 158.5 162.3 158.8 162.6 164.2 165.5 167.4 167.1 170 168.8 170 169.1 170 169.5 167.2 168.4 163.8 166.6 155.9 162.7 154.3 159.9 156.5 154.3 157.4 152.2 159.2 149.7 160.5 148.7 163.1 146.8 169.6 145 172 145.5 172.8 145.7 175.1 146.2 177 146.5ZM257.8 152.5C257.8 154.1 257.6 154 257 152 255.9 148.6 255.9 146 257 148.5 257.5 149.6 257.8 151.4 257.8 152.5ZM224 151.7C225.2 153.7 227.6 159.5 229.3 164.5 232 172.6 232.4 174.9 232.6 187L232.8 200.5 232 188.5C231 175 228.3 163.4 224 154.2 220.7 147.2 220.7 146.2 224 151.7ZM259.9 162.9C260 168 259.4 166.3 258.7 160 258.3 156.4 258.4 155.4 259 157 259.4 158.4 259.8 161 259.9 162.9ZM224.2 169.5C228.4 185.2 227.4 204.7 221.5 220.5 216.2 234.6 207.5 248.7 200.3 255 197.7 257.3 197.7 257.3 200.6 254 209.1 244.5 218.1 227.4 222.3 213.2 224.2 206.7 224.5 203.1 224.5 189.5 224.5 175.5 224.2 172.6 222.2 166.1 218.9 155.8 218.7 155 220.6 159 221.5 160.9 223.1 165.6 224.2 169.5ZM260.7 171.7C260.4 172.7 260.2 172.1 260.2 170.5 260.2 168.8 260.4 168.1 260.7 168.7 260.9 169.4 260.9 170.8 260.7 171.7ZM175 183.3C175 183.5 174 184.5 172.8 185.6L170.5 187.5 172.4 185.2C174.2 183.1 175 182.5 175 183.3ZM298.3 202.2C294.6 229.1 284.5 256.1 270 277.5 267.4 281.3 264.2 285.4 262.9 286.5 261.2 288 261.3 287.5 263.7 284.5 272.7 272.8 283.4 251.7 289 234.8 293.1 222.4 298 200.9 298 195.1 298 193.4 298.4 192 298.8 192 299.3 192 299.1 196.6 298.3 202.2ZM265.5 209.5C265.2 212.1 264.7 214 264.4 213.8 264.2 213.5 264.3 211.2 264.6 208.6 265 206.1 265.5 204.2 265.8 204.4 266 204.7 265.9 207 265.5 209.5ZM262.7 222.2C262.4 223 262.1 222.7 262.1 221.6 262 220.5 262.3 219.9 262.6 220.3 262.9 220.6 263 221.5 262.7 222.2ZM260.5 230.2C259.2 235.9 250.1 256.1 244.8 264.9 237.8 276.6 228.2 288.7 220.2 296.1 213.8 301.9 190.7 318 188.8 318 188.3 318 191.8 315.3 196.7 312.1 227.2 291.5 246.8 266.8 257.7 235.2 260.6 226.6 261.6 224.8 260.5 230.2ZM152.3 228.7C151 228.9 148.8 228.9 147.3 228.7 145.7 228.5 146.8 228.3 149.5 228.3 152.3 228.3 153.5 228.5 152.3 228.7ZM192 263.4C192 263.6 191.2 264.4 190.3 265.1 188.7 266.4 188.6 266.3 189.9 264.7 191.2 263.1 192 262.6 192 263.4ZM72.2 314.3C81.2 320.7 93.5 326.4 105.5 329.5 113.8 331.7 117.9 332.2 129.8 332.3 140.5 332.5 143.1 332.7 139.8 333.3 131.7 334.8 112.3 333.4 102.5 330.5 86 325.7 70.3 316.5 60.5 305.9L56.5 301.6 61 305.6C63.5 307.8 68.5 311.7 72.2 314.3Z"/>
<path transform="translate(0,0)" style="fill: rgb(0,0,0)" stroke-linecap="round" d="M107 20.7C93.5 26.5 72.9 41.1 60.2 54.1 53.6 60.7 41.8 75.9 38.4 82 37.4 83.9 35.9 86.3 35.2 87.2 34.4 88.1 34 89.4 34.2 90.1 34.4 90.8 35.7 89.4 36.9 86.9 41 79 53.1 63.7 62.9 54 75.3 41.7 87.6 32.5 101.2 25.5 111 20.4 113.4 18.8 111.3 19.1 110.8 19.1 108.9 19.8 107 20.7Z"/>
<path transform="translate(0,0)" style="fill: rgb(0,0,0)" stroke-linecap="round" d="M31.7 93.7C31.3 94 31 94.8 31 95.4 31 96 31.5 95.9 32.2 95.2 32.8 94.6 33.1 93.8 32.9 93.5 32.6 93.2 32 93.3 31.7 93.7Z"/>
<path transform="translate(0,0)" style="fill: rgb(0,0,0)" stroke-linecap="round" d="M298.9 98.2C299.3 99.4 300.3 100.6 300.9 100.8 301.7 101.1 301.6 100.3 300.5 98.6 298.4 95.4 297.8 95.3 298.9 98.2Z"/>
<path transform="translate(0,0)" style="stroke: rgb(255,255,255); stroke-opacity: 0; fill: rgb(0,0,0)" stroke-linecap="round" d="M56.5 139C56.1 140.2 56 141.4 56.3 141.7 56.6 141.9 57.1 141.2 57.5 140 57.9 138.8 58 137.6 57.7 137.3 57.4 137.1 56.9 137.8 56.5 139Z"/>
<path transform="translate(0,0)" style="fill: rgb(0,0,0)" stroke-linecap="round" d="M308.3 142C308.3 144.5 308.5 145.5 308.7 144.2 308.9 143 308.9 141 308.7 139.7 308.5 138.5 308.3 139.5 308.3 142Z"/>
<path transform="translate(0,0)" style="fill: rgb(0,0,0)" stroke-linecap="round" d="M53.7 148.4C53.3 149.4 53 150.9 53.1 151.8 53.1 152.9 53.5 152.7 54.1 151.1 54.6 149.8 54.9 148.2 54.7 147.6 54.5 147.1 54.1 147.4 53.7 148.4Z"/>
<path transform="translate(0,0)" style="stroke: rgb(255,255,255); stroke-opacity: 0; fill: rgb(0,0,0)" stroke-linecap="round" d="M310.7 176.3C311.1 212.6 311.1 213 312.2 202.5 313.1 193 312.3 153 311.2 151.8 310.8 151.4 310.6 162.4 310.7 176.3Z"/>
<path transform="translate(0,0)" style="fill: rgb(0,0,0)" stroke-linecap="round" d="M7.3 187.5C7.3 190.2 7.5 191.3 7.7 189.7 7.9 188.2 7.9 186 7.7 184.7 7.5 183.5 7.3 184.7 7.3 187.5Z"/>
<path transform="translate(0,0)" style="fill: rgb(0,0,0)" stroke-linecap="round" d="M6.4 215.5C7.6 236.3 11.4 254.4 17.6 268.7 18.4 270.4 19 272.1 19 272.5 19 272.9 21 277.2 23.5 282.1 33.7 302.7 49.6 322 66.9 334.9 85.1 348.3 111.2 357.6 137.9 360 151.6 361.3 161.8 360.4 176.8 356.9 191.2 353.5 207.9 347.2 218.3 341.3 221.6 339.5 224.4 338 224.6 338 225.4 338 238.6 329.6 242.4 326.7 260.2 312.9 272.4 300 285 281.5 289.9 274.3 300 254.2 300 251.6 300 250.4 300.5 248.9 301.1 248.3 301.9 247.5 301.9 247 301.1 246.5 300.4 246.1 299.3 247.4 298.4 249.7 291.5 266.2 283.4 279.7 270.5 296 268.2 299 248.5 318.6 244.8 321.6 234.8 329.9 215.4 341.1 199.9 347.5 180.2 355.7 166.8 358.5 148 358.4 130.6 358.3 119.2 356.5 102.5 350.9 82.8 344.3 67.7 334.9 53 320.1 26.3 293.3 10.9 258.3 8.1 218.6 7.6 211 6.8 204.5 6.4 204.2 6 203.8 6 208.9 6.4 215.5Z"/>
<path transform="translate(0,0)" style="fill: rgb(0,0,0)" stroke-linecap="round" d="M308.2 216.3C308.1 218.4 307.3 221.7 306.5 223.6 304.5 228.5 303.4 237 304.9 237 305.5 237 306 235.4 306 233.5 306 231.5 306.7 228.9 307.6 227.6 308.7 225.9 309 223.4 308.7 218.8 308.5 215.4 308.3 214.2 308.2 216.3Z"/>
<path transform="translate(0,0)" style="fill: rgb(0,0,0)" stroke-linecap="round" d="M301.6 241.2C301.3 242.9 301.4 244.8 302 245.4 302.7 246.1 303 245 303 242.2 303 237.2 302.5 236.8 301.6 241.2Z"/>
</svg>