<svg xml:space="preserve" viewBox="308.9757225433526 173.45605920000003 848.7953757225432 534.576" version="1.1" xmlns:xlink="http://www.w3.org/1999/xlink" xmlns="http://www.w3.org/2000/svg" style="max-height: 500px" width="848.7953757225432" height="534.576">
<desc>Created with Fabric.js 7.2.0</desc>
<defs>
</defs>
<rect fill="transparent" height="100%" width="100%" y="0" x="0"/>
<g transform="matrix(1.3328 0 0 1.3328 933.3008 444.2606)">
<path stroke-linecap="round" d="M 421.5 4.6 C 402.7 7.2 375.8 15 358.9 22.6 C 348.8 27.3 335.1 34.6 333 36.6 C 330.4 39.1 329.2 44 330.5 47.6 C 333.1 55.4 338.1 56.8 346.7 52.1 C 378.6 34.7 408 26 434.7 26 C 457.4 26 472.3 31 482.2 41.9 C 496.7 58 492.6 77.5 469.6 100.5 C 452.7 117.4 420.9 137.2 393.9 147.4 C 384.4 151.1 384.2 151.2 382.5 155.6 C 381.1 159.4 381 160.6 382 163.1 C 384.2 168.4 386.1 169 400.5 169 C 414.5 169 433.6 170.4 440.4 172 C 460.1 176.5 465.7 178.3 477.7 184.4 C 481.7 186.4 488.2 190.8 492.2 194.2 C 500.4 201.2 500.8 201.6 505.1 208.2 C 528.2 242.8 489.7 291.5 425.9 308.3 C 396.3 316.2 363.5 314.6 353.1 304.9 C 349.7 301.7 350.2 295.9 354.3 291.9 C 358.7 287.6 371.1 282 389.5 275.9 C 398 273 405 270.4 405 269.9 C 405 268.1 402.3 268 386.3 269 C 343.1 271.8 316.9 279.2 303.8 292.2 C 299.3 296.7 298.1 298.6 296.9 303.5 C 290.6 328.3 320.7 348.8 377.6 358.6 C 392.4 361.2 395.5 361.4 421.5 361.4 C 445 361.4 452.1 361 465.5 359.2 C 487.9 356 506.4 352.8 520.4 349.5 C 526.1 348.2 528.2 348.1 532.2 349.1 C 538.1 350.5 542.4 349.9 550.9 346.5 C 554.5 345.1 557.4 344.1 557.6 344.3 C 557.7 344.4 556.7 346.7 555.3 349.5 C 548 364.3 547.8 376.5 554.8 384.6 C 557.6 387.9 560.5 389 566.2 389 C 575.5 389 581.2 383.4 582.8 372.9 C 583.6 366.9 582.2 357 579.5 350.6 C 578.6 348.5 578.1 346.6 578.3 346.4 C 578.5 346.2 581.4 347.2 584.6 348.7 C 592.7 352.4 600.5 352.9 606.3 350.1 C 613.8 346.5 615.4 344 615.8 335.5 C 616.2 328.4 616.1 327.9 613.1 324.1 C 610.8 321.3 608.3 319.5 604.2 318 C 599.1 316.1 597.9 316 592.8 317 C 589.6 317.6 585.4 318.8 583.5 319.5 C 578.2 321.8 577.7 321.3 580.5 316.8 C 586.6 306.8 588.2 301.9 588.4 292.9 C 588.5 285 588.3 284.1 585.7 280.7 C 581.7 275.5 577.8 273.7 571.4 274.2 C 565.1 274.7 559.9 278.2 557.3 283.8 C 555.2 288.2 554.7 306.2 556.7 310.1 C 557.3 311.4 558.5 314.8 559.3 317.6 L 560.7 322.8 L 556 319.4 C 548.8 314.2 543.2 312 537 312 C 526.1 312 519.1 318.4 518.3 329.3 C 517.9 333.3 518.2 336.5 519 337.9 C 519.6 339.2 520 340.3 519.8 340.5 C 519.6 340.7 515.4 341.3 510.5 341.9 C 503.2 342.7 501.2 342.6 500.1 341.5 C 498.9 340.3 499 339.9 501.4 339 C 502.9 338.5 506 338 508.3 338 C 514.2 338 515.3 337 514.5 332.7 C 513.6 328.1 514.7 328.2 480 327.6 C 454.1 327.1 443.4 326.1 447 324.7 C 447.8 324.3 453.2 322.4 458.9 320.5 C 491 309.4 520.5 288.1 533.7 266.5 C 537.2 260.8 541.3 252.1 542.1 249 C 542.5 247.1 543.3 243.7 543.9 241.5 C 545.5 235.3 545.3 220 543.5 216.6 C 542.7 215.1 542 213 542 212 C 542 211 541.2 208.5 540.2 206.4 C 527.8 179.2 489.9 157 444.8 150.6 C 442.1 150.2 440 149.6 440 149.2 C 440 148.8 444.1 146.1 449 143.2 C 464.1 134.3 478.8 123 490.2 111.3 C 499.1 102.3 506.4 92.2 509.4 85 C 510.4 82.5 511.8 79.3 512.6 77.8 C 513.4 76.4 514 73.9 514 72.3 C 514 70.7 514.7 67.1 515.5 64.3 C 516.9 59.7 516.9 58.6 515.5 53.4 C 514.7 50.2 514 46.9 514 46 C 514 43.5 507.4 31.2 503.9 27.3 C 499.5 22.2 489.2 14.8 482.8 12 C 469.8 6.4 461.6 4.8 442.5 4.5 C 432.6 4.3 423.2 4.4 421.5 4.6 Z M 388.6 271.9 C 388.3 272.4 386.3 273.1 384.3 273.4 C 382.2 273.8 379.7 274.3 378.8 274.6 C 377.8 274.9 377 274.7 377 274.1 C 377 272.9 382.2 271.2 386.3 271.1 C 387.9 271 388.9 271.4 388.6 271.9 Z M 370 275.8 C 370 276.2 368.2 277.1 366 277.8 C 361.6 279.1 356.2 279.4 357.4 278.2 C 359.6 276 370 274 370 275.8 Z M 348.8 282.3 C 349 283.3 348.5 284 347.5 284 C 346.7 284 343.2 285.4 339.9 287.1 C 336.5 288.8 333.1 289.9 332.2 289.5 C 330 288.7 331.7 287.3 339.7 283.4 C 347 279.9 348.3 279.7 348.8 282.3 Z M 578.3 284.4 C 579.7 285.7 581.2 288.1 581.6 289.6 C 582.6 293.7 580.3 303.3 577 309.1 C 575.3 311.8 574 314.4 574 314.9 C 574 316.3 569.2 320.2 568.2 319.6 C 566.9 318.8 563.4 307 562.5 300.9 C 561.6 294.2 563.5 287 566.8 284.3 C 570.4 281.3 575 281.3 578.3 284.4 Z M 327 296.5 C 327 297.3 326.6 298.2 326 298.5 C 325.5 298.8 325 301.4 325 304.1 C 325 307.9 325.6 309.9 327.5 312.5 C 330.8 316.7 345.3 325.1 354.5 328 C 363.2 330.7 364.5 331.7 362.4 333.8 C 361 335.2 360.3 335.1 355.2 333.6 C 352 332.6 344.9 329.6 339.3 326.9 C 328.2 321.6 322.5 316.2 320.4 309.2 C 318.5 302.8 322 293.3 325.6 294.7 C 326.4 295 327 295.8 327 296.5 Z M 548.4 323.3 C 551.6 324.8 555.4 327.2 557 328.7 L 559.9 331.4 L 557.7 333.9 C 555.2 336.6 547 340.5 541.7 341.5 C 535 342.8 528 338.8 526.5 332.8 C 525.6 329.4 528.4 323.4 531.9 321.4 C 535.4 319.4 541.4 320.1 548.4 323.3 Z M 604 325.7 C 610.3 329.4 610.6 337.4 604.6 342.2 C 601.3 344.9 592.7 344.5 586 341.4 C 580.4 338.8 575 334.5 575 332.6 C 575 331.4 581.4 327.8 587.5 325.6 C 593 323.6 600.6 323.6 604 325.7 Z M 398.1 338.1 C 409.8 340 416.1 340.3 448.5 340.5 C 478.8 340.7 485.5 341 485.5 342.1 C 485.5 344.4 479.1 345.1 452 345.7 C 428.9 346.1 423.1 345.9 407 344 C 381 341 376.7 339.9 378.5 337 C 379.4 335.5 383.2 335.8 398.1 338.1 Z M 571 347.7 C 571 348.5 571.6 350.4 572.4 351.8 C 574.3 355.6 575.9 360.9 576.6 366.1 C 578.2 377.6 567.3 385.4 559.9 378.1 C 557.5 375.6 557 374.4 557 370.1 C 557 364.1 560 355 564.4 347.3 L 567.5 341.9 L 569.2 344.1 C 570.2 345.2 571 346.9 571 347.7 Z" transform="translate(-456.0223, -196.6955)" style="stroke: none; stroke-width: 1; stroke-dasharray: none; stroke-linecap: round; stroke-dashoffset: 0; stroke-linejoin: miter; stroke-miterlimit: 4; fill: rgb(255,255,255); fill-rule: nonzero; opacity: 1;"/>
</g>
<g transform="matrix(1.3328 0 0 1.3328 536.9763 424.6128)">
<path stroke-linecap="round" d="M 155 13.5 C 121.7 18.2 96.8 30.3 70.3 54.5 C 51 72.2 34.8 98.6 24 130 C 21.3 138 17.5 155.8 15.4 171 C 13.5 185.2 14 212.3 16.5 225 C 26.3 275.3 48.6 309.8 81.5 326 C 93.5 331.9 97.7 333.3 111 336 C 123.1 338.4 130.1 338.5 143.5 336.5 C 168.2 332.8 191 322.8 210 307.5 C 216.4 302.4 236.3 281.8 242.5 273.8 C 244.8 271 253.8 255.2 256.3 250 C 268.3 224.1 274.6 192.6 272.1 170.3 C 270 151 267.4 141.5 260.1 126.5 C 245.5 96.6 219.9 77.6 188.2 73 C 164.7 69.5 136.8 79.9 118.3 99.1 C 109.2 108.5 104 116.8 96.9 133.5 C 91.4 146.4 90 172.7 93.9 187.7 C 100.9 214.8 122.7 233 148.3 233 C 157.4 233 162.8 231.6 173.5 226.5 C 188.7 219.2 198.7 207.2 203.1 190.9 C 205.1 183.7 205.3 182 204.3 175.4 C 203 166.3 199.2 158.4 193.1 152.5 C 181.7 141.2 165.5 139.9 157 149.6 C 154.5 152.5 154 153.9 154 158 C 154 162.3 154.4 163.3 157.7 166.5 C 159.7 168.4 162.2 170 163.2 170 C 167.7 170 171.7 174.4 170.5 178 C 170.1 179.1 168.6 180.7 167 181.5 C 158.8 185.7 147.3 180.3 141.8 169.6 C 140.1 166.4 139.8 164.3 140.2 158.5 C 140.8 149.6 144.2 142.8 151.7 136 C 167.3 121.8 188.5 123.9 204.7 141.4 C 228.5 167 227.3 213.4 202.2 246 C 197.4 252.2 184.1 265.1 178.9 268.8 C 155.8 284.6 130.6 287.2 108.1 275.9 C 71.1 257.4 54.5 202.7 69.5 148.9 C 70.9 144.2 72.2 139.5 72.6 138.4 C 73.1 137.1 73 136.8 72.2 137.5 C 70.9 138.8 66.2 153.7 64.4 162.5 C 62.2 173.3 61.5 196.3 63 207.2 C 65.7 227.2 73 246.5 82.6 259.5 L 87.1 265.5 L 82 260 C 65.8 242.6 55.8 204.7 59 173.5 C 62.2 143 71.6 118.8 88 99.1 C 90.9 95.6 94.3 90.8 95.6 88.5 L 97.8 84.2 L 94.9 83.8 C 92.5 83.4 91.4 84 88.2 87.9 C 84.2 92.7 78 101.5 73.6 108.8 C 71.9 111.5 70.3 113 69.2 112.8 C 68 112.6 66.7 114.1 64.9 117.5 C 61.4 124.4 57.1 136.4 58.9 134.4 C 59.4 133.9 60.3 131.8 61 129.7 C 61.7 127.6 62.4 126.1 62.7 126.3 C 62.9 126.6 61.8 131 60.2 136.2 C 56.5 147.6 53.4 163.6 52.5 175 C 51.8 184.6 53.2 204.3 55.6 215.8 C 63.1 253.6 83.9 279.4 114.5 289 C 125.2 292.4 141.9 292.8 153.3 290.1 C 163 287.8 173.6 283.3 182.4 277.6 C 185.6 275.6 187.9 274.4 187.5 275.1 C 186 277.5 171.6 286 164.2 288.9 C 136 299.7 109.2 296 86.6 278 C 69.7 264.6 59.9 248.4 53.3 223.3 C 50.6 212.9 50.5 211.6 50.5 188.5 C 50.5 172.1 50.3 166.7 49.7 171.5 C 49.3 175.3 48.5 181.4 47.8 185 C 47.2 188.6 46.7 194.1 46.9 197.4 C 47.3 210.1 53 236.7 57.2 246 C 60.3 252.6 68.4 265.1 73 270.3 C 79.5 277.5 90.5 285.8 99.6 290.4 C 131.6 306.6 167.7 298.8 199.4 269 C 204.5 264.2 213.8 252.7 217.7 246.5 C 225.4 234.1 230.8 221.8 233.8 209.5 C 236.4 198.7 236.1 177.9 233.1 167.5 C 225.1 138.9 205.3 119.3 180.3 115 C 163 112 140.3 124.2 132.5 140.6 C 129.4 147.1 127.8 157.7 128.6 165.5 C 129.9 176.8 137.4 187.1 147.9 192.1 C 153.5 194.8 164.7 195.2 170 192.8 C 174.8 190.7 179.6 185.5 181.6 180.4 C 183.1 176.5 183.1 175.8 181.5 171.1 C 179.8 165.8 177 163 170 159.5 C 166.6 157.7 166.6 157.7 169 156.8 C 174.5 154.8 182.5 159.1 187.8 166.8 C 190.9 171.5 191.1 172.2 191.1 180.3 C 191.1 189.6 190 192.8 183.8 201.8 C 175.8 213.4 158.8 220.4 144.5 218 C 131 215.8 119.8 207.2 113.6 194.6 C 108.5 184.1 107 177 107 163.7 C 107 153.5 107.4 150.8 110.3 141.2 C 118.7 113.4 135.6 96.1 161.1 89 C 176.7 84.7 198.9 87.6 213 95.7 C 229.7 105.4 243.8 123.6 250 143.5 C 254.6 158.3 255.4 164 255.4 182 C 255.3 200.3 254.6 205.7 249.3 224 C 244.7 240.3 231.9 264.3 222.5 274.6 C 205.5 293.2 192.1 303.7 175.4 311.5 C 136.8 329.5 97.9 325.6 68.7 300.6 C 55.1 288.9 42.2 266.4 35.5 242.6 C 26.7 211.2 27.9 166.1 38.5 134.5 C 47.7 106.9 64.1 82.8 87.5 62.4 C 126.2 28.7 176.4 21.2 220.5 42.4 C 244.8 54.1 266.3 75.7 278.1 100 C 279.3 102.5 280.7 105.4 281.3 106.5 C 284.2 112 289.7 129.2 292.6 141.5 C 297.6 163.1 296.7 197.7 290.5 219.6 C 289.7 222.4 289 225.6 289 226.8 C 289 228 288.4 230.4 287.6 232.2 C 286.8 234 284.5 239.5 282.5 244.5 C 277.8 256.1 270.5 269 262.8 279.5 C 258.8 285 246.8 297.9 242.5 301.2 C 238 304.8 237.1 306 237.1 308.8 C 237 312.7 233.9 315.1 215.7 325.4 C 196.9 335.9 181.4 341.6 163.8 344.5 C 161 344.9 160.1 345.6 159.8 347.3 C 159.5 349.2 158.7 349.6 153.5 350.2 C 147.9 350.8 127.9 349.7 122.1 348.4 C 113.1 346.3 97.5 341.3 91.5 338.6 C 69.8 328.6 45.8 305.3 33.2 282 C 28.2 272.7 22 255.5 19 243 C 17.8 237.8 16.4 232.6 16 231.5 C 14.3 227.5 15 235.3 17.1 244 C 27.3 286.6 53.7 322.1 87.5 338.5 C 108.6 348.8 120.5 351.5 144.5 351.5 C 162.6 351.5 164.9 351.1 185 344.8 C 206.8 338 232.1 322.1 251.8 302.9 C 263.6 291.5 269.2 284.6 276.5 272.5 C 288.6 252.5 296.2 231.6 301.1 205.1 C 304.8 184.6 303.3 157 296.9 131.8 C 287.5 94.2 264.2 62.1 232.7 43.2 C 223.8 37.9 206.8 31.4 195.5 28.9 C 160.3 21.2 123.2 29.8 92.4 52.8 C 84.7 58.5 70.2 72.8 62.8 82 C 47.9 100.4 34.2 129.4 29.5 152.5 C 20.6 195.4 24.8 235.2 42 270.5 C 52.9 292.8 66.4 306.6 87.5 317 C 101.8 324 108.8 326 123.5 327 C 133.7 327.6 133.9 327.7 127 327.8 C 111.6 328.1 93.8 323.2 79.5 314.8 C 69.3 308.7 54.6 295 48.3 285.5 C 19.8 242.9 14.3 174.9 35.1 122.7 C 46.6 94 60.3 73.3 78.1 58 C 81.6 55 85.4 51.7 86.5 50.7 C 89.4 48 104.5 38.8 112.7 34.6 C 122.6 29.7 141.4 23.3 151.8 21.5 C 161.8 19.8 182.4 19.5 192 21 C 227.8 26.7 264.2 51.8 285.5 85.4 C 288.2 89.6 290.5 92.8 290.8 92.5 C 291 92.3 289.5 89 287.5 85.3 C 274.1 61.3 258.4 45.7 233.8 31.9 C 224.6 26.8 224.1 25.5 233.1 30.1 C 257.1 42.1 279.4 63.4 292.5 86.8 C 294.7 90.7 296.8 94 297.1 94 C 299.7 94.1 290.2 76.6 281.6 65.5 C 269.7 50.3 251.7 35.4 235.3 27.1 C 212 15.4 180 9.9 155 13.5 Z M 109.5 31.9 C 94.4 41 90.5 43.7 83.5 49.3 C 75.7 55.6 62.7 68.5 56.1 76.5 C 51.3 82.4 53.6 78.4 59.1 71.5 C 70.3 57.2 90.8 40.4 107.5 31.7 C 111.7 29.5 113.2 29.6 109.5 31.9 Z M 199.5 78.5 C 202.8 79.3 208.8 81.6 212.7 83.5 C 240.7 96.7 259.7 123.3 266.4 158.9 C 268.1 167.5 268.5 190.4 267.2 199 C 266.8 201.5 266.5 195 266.5 184.5 C 266.5 162.8 264.8 152.6 258.5 136.5 C 245.4 103.3 218.7 81.5 186.8 78.2 C 177.9 77.3 164.2 78.3 157 80.4 C 154.2 81.2 152.2 81.5 152.5 81.1 C 152.7 80.6 156 79.5 159.7 78.6 C 163.5 77.8 167.4 76.9 168.5 76.6 C 172.4 75.6 193.6 76.9 199.5 78.5 Z M 246.3 122.9 C 251.1 131 256.4 143.4 255.7 145.3 C 255.5 145.9 254.1 142.9 252.6 138.6 C 249.6 130 243 118.3 236.8 110.6 L 232.8 105.5 L 237.2 110.3 C 239.7 112.9 243.7 118.6 246.3 122.9 Z M 33.7 116.6 C 24.9 138 20.1 160.6 19 186 L 18.2 203.5 L 18.5 184 C 18.8 167.6 19.2 162.6 21.4 152.5 C 24.2 139.5 28.7 124.9 32.8 115.7 C 36.1 108.2 36.9 109 33.7 116.6 Z M 107.3 123.5 C 107 124.4 106.5 124.9 106.3 124.6 C 106 124.3 106.1 123.7 106.5 123.1 C 107.4 121.5 108 121.8 107.3 123.5 Z M 101.4 137.6 C 98 148 96.7 158 97.3 170 C 97.6 175.8 98.2 181.6 98.5 183 L 99.1 185.5 L 97.9 183 C 97.3 181.6 96.5 175.3 96.3 168.9 C 95.7 156.4 97.3 145.7 101.1 135.3 C 104.1 127.5 104.3 129.1 101.4 137.6 Z M 177 146.5 C 189.1 148.8 199.6 161.8 201.6 176.8 C 203.1 188.6 196.5 204.7 186.2 214.1 C 180.3 219.5 166.6 226.6 160.5 227.5 C 157.7 227.9 158.7 227.3 163.9 225.6 C 172.3 222.8 183.4 215.6 188.4 209.9 C 195.2 201.9 200 189.7 200 180.4 C 200 174.6 196.6 164.1 193.1 159.3 C 184.9 147.9 168 143.9 160.3 151.6 C 158.4 153.5 157.9 154.9 158.2 158.3 C 158.5 162.3 158.8 162.6 164.2 165.5 C 167.4 167.1 170 168.8 170 169.1 C 170 169.5 167.2 168.4 163.8 166.6 C 155.9 162.7 154.3 159.9 156.5 154.3 C 157.4 152.2 159.2 149.7 160.5 148.7 C 163.1 146.8 169.6 145 172 145.5 C 172.8 145.7 175.1 146.2 177 146.5 Z M 257.8 152.5 C 257.8 154.1 257.6 154 257 152 C 255.9 148.6 255.9 146 257 148.5 C 257.5 149.6 257.8 151.4 257.8 152.5 Z M 224 151.7 C 225.2 153.7 227.6 159.5 229.3 164.5 C 232 172.6 232.4 174.9 232.6 187 L 232.8 200.5 L 232 188.5 C 231 175 228.3 163.4 224 154.2 C 220.7 147.2 220.7 146.2 224 151.7 Z M 259.9 162.9 C 260 168 259.4 166.3 258.7 160 C 258.3 156.4 258.4 155.4 259 157 C 259.4 158.4 259.8 161 259.9 162.9 Z M 224.2 169.5 C 228.4 185.2 227.4 204.7 221.5 220.5 C 216.2 234.6 207.5 248.7 200.3 255 C 197.7 257.3 197.7 257.3 200.6 254 C 209.1 244.5 218.1 227.4 222.3 213.2 C 224.2 206.7 224.5 203.1 224.5 189.5 C 224.5 175.5 224.2 172.6 222.2 166.1 C 218.9 155.8 218.7 155 220.6 159 C 221.5 160.9 223.1 165.6 224.2 169.5 Z M 260.7 171.7 C 260.4 172.7 260.2 172.1 260.2 170.5 C 260.2 168.8 260.4 168.1 260.7 168.7 C 260.9 169.4 260.9 170.8 260.7 171.7 Z M 175 183.3 C 175 183.5 174 184.5 172.8 185.6 L 170.5 187.5 L 172.4 185.2 C 174.2 183.1 175 182.5 175 183.3 Z M 298.3 202.2 C 294.6 229.1 284.5 256.1 270 277.5 C 267.4 281.3 264.2 285.4 262.9 286.5 C 261.2 288 261.3 287.5 263.7 284.5 C 272.7 272.8 283.4 251.7 289 234.8 C 293.1 222.4 298 200.9 298 195.1 C 298 193.4 298.4 192 298.8 192 C 299.3 192 299.1 196.6 298.3 202.2 Z M 265.5 209.5 C 265.2 212.1 264.7 214 264.4 213.8 C 264.2 213.5 264.3 211.2 264.6 208.6 C 265 206.1 265.5 204.2 265.8 204.4 C 266 204.7 265.9 207 265.5 209.5 Z M 262.7 222.2 C 262.4 223 262.1 222.7 262.1 221.6 C 262 220.5 262.3 219.9 262.6 220.3 C 262.9 220.6 263 221.5 262.7 222.2 Z M 260.5 230.2 C 259.2 235.9 250.1 256.1 244.8 264.9 C 237.8 276.6 228.2 288.7 220.2 296.1 C 213.8 301.9 190.7 318 188.8 318 C 188.3 318 191.8 315.3 196.7 312.1 C 227.2 291.5 246.8 266.8 257.7 235.2 C 260.6 226.6 261.6 224.8 260.5 230.2 Z M 152.3 228.7 C 151 228.9 148.8 228.9 147.3 228.7 C 145.7 228.5 146.8 228.3 149.5 228.3 C 152.3 228.3 153.5 228.5 152.3 228.7 Z M 192 263.4 C 192 263.6 191.2 264.4 190.3 265.1 C 188.7 266.4 188.6 266.3 189.9 264.7 C 191.2 263.1 192 262.6 192 263.4 Z M 72.2 314.3 C 81.2 320.7 93.5 326.4 105.5 329.5 C 113.8 331.7 117.9 332.2 129.8 332.3 C 140.5 332.5 143.1 332.7 139.8 333.3 C 131.7 334.8 112.3 333.4 102.5 330.5 C 86 325.7 70.3 316.5 60.5 305.9 L 56.5 301.6 L 61 305.6 C 63.5 307.8 68.5 311.7 72.2 314.3 Z" transform="translate(-158.667, -181.9541)" style="stroke: rgb(255,255,255); stroke-width: 1; stroke-dasharray: none; stroke-linecap: round; stroke-dashoffset: 0; stroke-linejoin: miter; stroke-miterlimit: 4; fill: rgb(255,255,255); fill-rule: nonzero; opacity: 1;"/>
</g>
<g transform="matrix(1.3328 0 0 1.3328 422.8972 254.968)">
<path stroke-linecap="round" d="M 107 20.7 C 93.5 26.5 72.9 41.1 60.2 54.1 C 53.6 60.7 41.8 75.9 38.4 82 C 37.4 83.9 35.9 86.3 35.2 87.2 C 34.4 88.1 34 89.4 34.2 90.1 C 34.4 90.8 35.7 89.4 36.9 86.9 C 41 79 53.1 63.7 62.9 54 C 75.3 41.7 87.6 32.5 101.2 25.5 C 111 20.4 113.4 18.8 111.3 19.1 C 110.8 19.1 108.9 19.8 107 20.7 Z" transform="translate(-73.0754, -54.6726)" style="stroke: none; stroke-width: 1; stroke-dasharray: none; stroke-linecap: round; stroke-dashoffset: 0; stroke-linejoin: miter; stroke-miterlimit: 4; fill: rgb(255,255,255); fill-rule: nonzero; opacity: 1;"/>
</g>
<g transform="matrix(1.3328 0 0 1.3328 368.1251 308.1309)">
<path stroke-linecap="round" d="M 31.7 93.7 C 31.3 94 31 94.8 31 95.4 C 31 96 31.5 95.9 32.2 95.2 C 32.8 94.6 33.1 93.8 32.9 93.5 C 32.6 93.2 32 93.3 31.7 93.7 Z" transform="translate(-31.9809, -94.5598)" style="stroke: none; stroke-width: 1; stroke-dasharray: none; stroke-linecap: round; stroke-dashoffset: 0; stroke-linejoin: miter; stroke-miterlimit: 4; fill: rgb(255,255,255); fill-rule: nonzero; opacity: 1;"/>
</g>
<g transform="matrix(1.3328 0 0 1.3328 725.2055 313.3629)">
<path stroke-linecap="round" d="M 298.9 98.2 C 299.3 99.4 300.3 100.6 300.9 100.8 C 301.7 101.1 301.6 100.3 300.5 98.6 C 298.4 95.4 297.8 95.3 298.9 98.2 Z" transform="translate(-299.892, -98.4853)" style="stroke: none; stroke-width: 1; stroke-dasharray: none; stroke-linecap: round; stroke-dashoffset: 0; stroke-linejoin: miter; stroke-miterlimit: 4; fill: rgb(255,255,255); fill-rule: nonzero; opacity: 1;"/>
</g>
<g transform="matrix(1.3328 0 0 1.3328 401.4714 368.0286)">
<path stroke-linecap="round" d="M 56.5 139 C 56.1 140.2 56 141.4 56.3 141.7 C 56.6 141.9 57.1 141.2 57.5 140 C 57.9 138.8 58 137.6 57.7 137.3 C 57.4 137.1 56.9 137.8 56.5 139 Z" transform="translate(-57, -139.5)" style="stroke: rgb(255,255,255); stroke-width: 1; stroke-dasharray: none; stroke-linecap: round; stroke-dashoffset: 0; stroke-linejoin: miter; stroke-miterlimit: 4; fill: rgb(255,255,255); fill-rule: nonzero; opacity: 1;"/>
</g>
<g transform="matrix(1.3328 0 0 1.3328 736.7784 371.337)">
<path stroke-linecap="round" d="M 308.3 142 C 308.3 144.5 308.5 145.5 308.7 144.2 C 308.9 143 308.9 141 308.7 139.7 C 308.5 138.5 308.3 139.5 308.3 142 Z" transform="translate(-308.575, -141.9823)" style="stroke: none; stroke-width: 1; stroke-dasharray: none; stroke-linecap: round; stroke-dashoffset: 0; stroke-linejoin: miter; stroke-miterlimit: 4; fill: rgb(255,255,255); fill-rule: nonzero; opacity: 1;"/>
</g>
<g transform="matrix(1.3328 0 0 1.3328 397.3684 381.9255)">
<path stroke-linecap="round" d="M 53.7 148.4 C 53.3 149.4 53 150.9 53.1 151.8 C 53.1 152.9 53.5 152.7 54.1 151.1 C 54.6 149.8 54.9 148.2 54.7 147.6 C 54.5 147.1 54.1 147.4 53.7 148.4 Z" transform="translate(-53.9216, -149.9266)" style="stroke: none; stroke-width: 1; stroke-dasharray: none; stroke-linecap: round; stroke-dashoffset: 0; stroke-linejoin: miter; stroke-miterlimit: 4; fill: rgb(255,255,255); fill-rule: nonzero; opacity: 1;"/>
</g>
<g transform="matrix(1.3328 0 0 1.3328 740.8525 422.167)">
<path stroke-linecap="round" d="M 310.7 176.3 C 311.1 212.6 311.1 213 312.2 202.5 C 313.1 193 312.3 153 311.2 151.8 C 310.8 151.4 310.6 162.4 310.7 176.3 Z" transform="translate(-311.6317, -180.1191)" style="stroke: rgb(255,255,255); stroke-width: 1; stroke-dasharray: none; stroke-linecap: round; stroke-dashoffset: 0; stroke-linejoin: miter; stroke-miterlimit: 4; fill: rgb(255,255,255); fill-rule: nonzero; opacity: 1;"/>
</g>
<g transform="matrix(1.3328 0 0 1.3328 335.5962 431.7908)">
<path stroke-linecap="round" d="M 7.3 187.5 C 7.3 190.2 7.5 191.3 7.7 189.7 C 7.9 188.2 7.9 186 7.7 184.7 C 7.5 183.5 7.3 184.7 7.3 187.5 Z" transform="translate(-7.575, -187.3397)" style="stroke: none; stroke-width: 1; stroke-dasharray: none; stroke-linecap: round; stroke-dashoffset: 0; stroke-linejoin: miter; stroke-miterlimit: 4; fill: rgb(255,255,255); fill-rule: nonzero; opacity: 1;"/>
</g>
<g transform="matrix(1.3328 0 0 1.3328 530.6227 558.453)">
<path stroke-linecap="round" d="M 6.4 215.5 C 7.6 236.3 11.4 254.4 17.6 268.7 C 18.4 270.4 19 272.1 19 272.5 C 19 272.9 21 277.2 23.5 282.1 C 33.7 302.7 49.6 322 66.9 334.9 C 85.1 348.3 111.2 357.6 137.9 360 C 151.6 361.3 161.8 360.4 176.8 356.9 C 191.2 353.5 207.9 347.2 218.3 341.3 C 221.6 339.5 224.4 338 224.6 338 C 225.4 338 238.6 329.6 242.4 326.7 C 260.2 312.9 272.4 300 285 281.5 C 289.9 274.3 300 254.2 300 251.6 C 300 250.4 300.5 248.9 301.1 248.3 C 301.9 247.5 301.9 247 301.1 246.5 C 300.4 246.1 299.3 247.4 298.4 249.7 C 291.5 266.2 283.4 279.7 270.5 296 C 268.2 299 248.5 318.6 244.8 321.6 C 234.8 329.9 215.4 341.1 199.9 347.5 C 180.2 355.7 166.8 358.5 148 358.4 C 130.6 358.3 119.2 356.5 102.5 350.9 C 82.8 344.3 67.7 334.9 53 320.1 C 26.3 293.3 10.9 258.3 8.1 218.6 C 7.6 211 6.8 204.5 6.4 204.2 C 6 203.8 6 208.9 6.4 215.5 Z" transform="translate(-153.9, -282.3721)" style="stroke: none; stroke-width: 1; stroke-dasharray: none; stroke-linecap: round; stroke-dashoffset: 0; stroke-linejoin: miter; stroke-miterlimit: 4; fill: rgb(255,255,255); fill-rule: nonzero; opacity: 1;"/>
</g>
<g transform="matrix(1.3328 0 0 1.3328 734.0212 483.4912)">
<path stroke-linecap="round" d="M 308.2 216.3 C 308.1 218.4 307.3 221.7 306.5 223.6 C 304.5 228.5 303.4 237 304.9 237 C 305.5 237 306 235.4 306 233.5 C 306 231.5 306.7 228.9 307.6 227.6 C 308.7 225.9 309 223.4 308.7 218.8 C 308.5 215.4 308.3 214.2 308.2 216.3 Z" transform="translate(-306.5063, -226.1296)" style="stroke: none; stroke-width: 1; stroke-dasharray: none; stroke-linecap: round; stroke-dashoffset: 0; stroke-linejoin: miter; stroke-miterlimit: 4; fill: rgb(255,255,255); fill-rule: nonzero; opacity: 1;"/>
</g>
<g transform="matrix(1.3328 0 0 1.3328 728.3057 504.4841)">
<path stroke-linecap="round" d="M 301.6 241.2 C 301.3 242.9 301.4 244.8 302 245.4 C 302.7 246.1 303 245 303 242.2 C 303 237.2 302.5 236.8 301.6 241.2 Z" transform="translate(-302.2181, -241.8802)" style="stroke: none; stroke-width: 1; stroke-dasharray: none; stroke-linecap: round; stroke-dashoffset: 0; stroke-linejoin: miter; stroke-miterlimit: 4; fill: rgb(255,255,255); fill-rule: nonzero; opacity: 1;"/>
</g>
</svg>